<?xml version="1.0" encoding="UTF-8"?>
<svg xmlns="http://www.w3.org/2000/svg" xmlns:xlink="http://www.w3.org/1999/xlink" viewBox="0 0 50 50" width="50px" height="50px">
<g id="surface466775">
<path style=" stroke:none;fill-rule:nonzero;fill:rgb(92.54902%,94.117647%,94.509804%);fill-opacity:1;" d="M 25 8.898438 C 16.117188 8.898438 8.898438 16.117188 8.898438 25 C 8.898438 33.882812 16.117188 41.101562 25 41.101562 C 33.882812 41.101562 41.101562 33.882812 41.101562 25 C 41.101562 16.117188 33.882812 8.898438 25 8.898438 Z M 25 10.300781 C 33.125 10.300781 39.699219 16.875 39.699219 25 C 39.699219 25.050781 39.695312 25.097656 39.695312 25.148438 C 39.25 25.109375 38.730469 25.070312 38.074219 25.046875 C 37.144531 25.011719 35.96875 25.023438 34.640625 25.085938 C 34.691406 24.746094 34.726562 24.394531 34.726562 24.039062 C 34.792969 22.726562 34.355469 21.5 33.636719 20.417969 C 33.8125 19.820312 34.015625 19.0625 34.066406 18.199219 C 34.121094 17.214844 34.039062 16.125 33.25 15.390625 L 33.046875 15.199219 L 32.769531 15.199219 C 30.890625 15.199219 29.605469 15.984375 28.820312 16.609375 C 27.683594 16.171875 26.410156 15.898438 25 15.898438 C 23.582031 15.898438 22.292969 16.175781 21.113281 16.613281 C 20.328125 15.988281 19.039062 15.199219 17.160156 15.199219 L 16.886719 15.199219 L 16.683594 15.386719 C 15.914062 16.101562 15.84375 17.160156 15.890625 18.140625 C 15.933594 19.003906 16.125 19.785156 16.296875 20.414062 C 15.566406 21.515625 15.128906 22.777344 15.128906 24.019531 C 15.128906 24.378906 15.164062 24.726562 15.210938 25.070312 C 13.949219 25.011719 12.820312 25 11.925781 25.03125 C 11.269531 25.054688 10.75 25.09375 10.304688 25.136719 C 10.304688 25.089844 10.300781 25.046875 10.300781 25 C 10.300781 16.875 16.875 10.300781 25 10.300781 Z M 17.578125 16.691406 C 18.988281 16.824219 20.050781 17.457031 20.542969 17.894531 L 20.871094 18.183594 L 21.277344 18.019531 C 22.382812 17.5625 23.617188 17.300781 25 17.300781 C 26.382812 17.300781 27.617188 17.5625 28.640625 18.011719 L 29.050781 18.191406 L 29.382812 17.894531 C 29.875 17.457031 30.941406 16.824219 32.355469 16.691406 C 32.542969 17.003906 32.707031 17.445312 32.664062 18.117188 C 32.617188 18.917969 32.402344 19.792969 32.242188 20.308594 L 32.136719 20.648438 L 32.347656 20.933594 C 33.039062 21.878906 33.390625 22.902344 33.332031 23.980469 L 33.332031 24.019531 C 33.332031 25.765625 32.703125 27.164062 31.363281 28.199219 C 30.023438 29.238281 27.90625 29.898438 24.929688 29.898438 C 21.953125 29.898438 19.835938 29.238281 18.496094 28.199219 C 17.15625 27.164062 16.53125 25.765625 16.53125 24.019531 C 16.53125 22.996094 16.902344 21.867188 17.585938 20.933594 L 17.789062 20.65625 L 17.691406 20.324219 C 17.527344 19.769531 17.328125 18.878906 17.289062 18.070312 C 17.257812 17.398438 17.417969 16.976562 17.578125 16.691406 Z M 13.71875 25.714844 C 14.214844 25.722656 14.78125 25.75 15.347656 25.777344 C 15.402344 25.996094 15.464844 26.210938 15.539062 26.417969 C 13.226562 26.46875 11.492188 26.699219 10.425781 26.898438 C 10.378906 26.550781 10.34375 26.195312 10.324219 25.839844 C 11.113281 25.765625 12.226562 25.695312 13.71875 25.714844 Z M 36.28125 25.726562 C 37.773438 25.707031 38.886719 25.777344 39.675781 25.851562 C 39.652344 26.203125 39.617188 26.550781 39.574219 26.894531 C 38.46875 26.695312 36.691406 26.460938 34.316406 26.421875 C 34.386719 26.21875 34.449219 26.007812 34.503906 25.792969 C 35.128906 25.757812 35.742188 25.734375 36.28125 25.726562 Z M 15.839844 27.113281 C 16.257812 27.949219 16.851562 28.699219 17.640625 29.308594 C 18.71875 30.140625 20.121094 30.722656 21.832031 31.035156 C 21.609375 31.265625 21.40625 31.519531 21.226562 31.785156 L 21.183594 31.75 C 21.1875 31.742188 20.835938 31.921875 20.308594 31.96875 C 19.785156 32.015625 19.136719 32 18.5625 32 C 17.703125 32 17.324219 31.59375 16.722656 30.855469 C 16.386719 30.40625 15.980469 30.042969 15.585938 29.765625 C 15.179688 29.480469 14.832031 29.28125 14.40625 29.210938 L 14.347656 29.199219 L 14.289062 29.199219 C 13.960938 29.199219 13.648438 29.222656 13.351562 29.5625 C 13.203125 29.730469 13.101562 30.042969 13.167969 30.304688 C 13.234375 30.570312 13.402344 30.734375 13.550781 30.832031 C 14.507812 31.46875 14.675781 32.734375 15.277344 33.855469 C 15.835938 34.972656 17.046875 35.5 18.28125 35.5 L 20.101562 35.5 L 20.101562 38.863281 C 15.175781 37.125 11.464844 32.84375 10.53125 27.59375 C 11.605469 27.390625 13.398438 27.148438 15.839844 27.113281 Z M 34.019531 27.117188 C 36.511719 27.140625 38.355469 27.382812 39.46875 27.589844 C 38.539062 32.839844 34.824219 37.125 29.898438 38.863281 L 29.898438 35.21875 C 29.898438 34.109375 29.535156 32.886719 28.902344 31.867188 C 28.710938 31.558594 28.484375 31.265625 28.230469 31 C 29.851562 30.683594 31.183594 30.109375 32.21875 29.308594 C 33.003906 28.699219 33.601562 27.953125 34.019531 27.117188 Z M 24.089844 31.371094 L 26.050781 31.371094 C 26.617188 31.371094 27.226562 31.824219 27.710938 32.605469 C 28.199219 33.386719 28.5 34.4375 28.5 35.21875 L 28.5 39.277344 C 27.378906 39.550781 26.207031 39.699219 25 39.699219 C 23.792969 39.699219 22.621094 39.550781 21.5 39.277344 L 21.5 35.21875 C 21.5 34.457031 21.828125 33.40625 22.347656 32.621094 C 22.863281 31.835938 23.519531 31.371094 24.089844 31.371094 Z M 16.117188 32.195312 C 16.722656 32.824219 17.457031 33.398438 18.558594 33.398438 C 19.105469 33.398438 19.785156 33.417969 20.433594 33.363281 C 20.4375 33.363281 20.4375 33.359375 20.441406 33.359375 C 20.355469 33.605469 20.292969 33.851562 20.238281 34.101562 L 18.28125 34.101562 C 17.417969 34.101562 16.808594 33.789062 16.527344 33.226562 L 16.519531 33.214844 L 16.515625 33.207031 C 16.402344 32.996094 16.25 32.566406 16.117188 32.195312 Z M 16.117188 32.195312 "/>
</g>
</svg>
