<?xml version="1.0" standalone="no"?>
<!DOCTYPE svg PUBLIC "-//W3C//DTD SVG 20010904//EN"
 "http://www.w3.org/TR/2001/REC-SVG-20010904/DTD/svg10.dtd">
<svg version="1.0" xmlns="http://www.w3.org/2000/svg"
 width="517.000000pt" height="86.000000pt" viewBox="0 0 517.000000 86.000000"
 preserveAspectRatio="xMidYMid meet">

<g transform="translate(0.000000,86.000000) scale(0.100000,-0.100000)"
fill="#000000" stroke="none">
<path d="M681 808 c-5 -13 -61 -174 -126 -358 -65 -184 -120 -341 -122 -347
-4 -9 9 -13 46 -13 49 0 53 2 65 32 16 39 246 697 246 703 0 3 -23 5 -50 5
-43 0 -52 -3 -59 -22z"/>
<path d="M3392 778 c-42 -21 -43 -79 -1 -110 38 -28 86 -17 104 24 29 69 -32
120 -103 86z"/>
<path d="M2210 460 l0 -290 60 0 60 0 0 290 0 290 -60 0 -60 0 0 -290z"/>
<path d="M3610 460 l0 -290 60 0 60 0 0 290 0 290 -60 0 -60 0 0 -290z"/>
<path d="M2982 719 c-28 -7 -58 -25 -88 -53 -43 -41 -44 -45 -44 -103 0 -98
29 -123 191 -168 100 -27 131 -50 122 -86 -7 -26 -59 -49 -110 -49 -21 1 -63
10 -93 21 -30 11 -62 22 -70 25 -11 4 -21 -7 -33 -31 -23 -49 -22 -52 21 -74
90 -46 233 -51 311 -12 97 50 129 151 70 225 -28 36 -62 52 -170 81 -101 27
-119 37 -119 70 0 68 121 83 246 29 10 -4 44 62 44 85 0 31 -197 59 -278 40z"/>
<path d="M810 713 c0 -4 39 -128 87 -275 l87 -268 67 0 67 0 63 188 c34 103
65 180 68 172 2 -8 30 -91 61 -185 l56 -170 68 0 68 0 89 270 c49 149 89 271
89 273 0 1 -27 2 -60 2 l-59 0 -62 -190 c-33 -105 -64 -188 -68 -186 -4 3 -34
88 -66 190 l-59 186 -57 0 c-55 0 -57 -1 -69 -32 -6 -18 -34 -98 -61 -178 -27
-80 -52 -152 -55 -160 -4 -8 -34 69 -68 175 l-62 190 -62 3 c-34 2 -62 -1 -62
-5z"/>
<path d="M202 561 l-173 -66 3 -50 3 -50 175 -67 c96 -37 179 -67 183 -68 4 0
7 21 5 46 l-3 47 -123 45 c-68 24 -121 47 -118 49 3 3 58 24 123 48 l118 43 3
46 c2 33 -1 46 -10 45 -7 -1 -91 -31 -186 -68z"/>
<path d="M4780 586 c0 -50 -14 -41 184 -112 44 -15 75 -29 70 -31 -5 -2 -63
-23 -129 -47 l-120 -44 -3 -46 c-2 -25 0 -46 5 -46 4 0 87 30 185 67 l178 68
0 50 0 50 -177 68 c-98 37 -181 67 -185 67 -5 0 -8 -20 -8 -44z"/>
<path d="M2545 591 c-67 -17 -113 -60 -121 -112 -13 -78 34 -121 154 -140 91
-15 122 -40 87 -69 -21 -18 -124 -15 -170 4 -21 9 -39 16 -41 16 -2 0 -13 -18
-24 -40 l-20 -39 32 -18 c42 -21 201 -30 251 -14 52 18 97 73 97 119 0 69 -41
102 -150 122 -83 15 -114 33 -100 60 18 34 108 37 181 6 11 -5 20 3 32 29 9
20 17 40 17 44 0 25 -165 48 -225 32z"/>
<path d="M4387 590 c-21 -6 -51 -17 -67 -25 l-30 -16 20 -39 c11 -22 22 -40
24 -40 2 0 20 7 39 15 54 22 128 20 155 -5 12 -12 22 -30 22 -40 0 -18 -7 -20
-62 -20 -122 -1 -184 -29 -205 -93 -17 -51 1 -104 46 -134 27 -18 48 -23 102
-23 58 0 72 4 98 26 l31 26 0 -26 c0 -25 2 -26 56 -26 l55 0 -3 163 c-3 183
-12 208 -85 242 -43 21 -142 28 -196 15z m163 -266 c0 -40 -17 -62 -56 -73
-48 -13 -92 3 -101 37 -10 40 25 62 98 62 57 0 59 -1 59 -26z"/>
<path d="M1771 383 c60 -138 88 -215 84 -230 -10 -40 -61 -53 -117 -29 -13 6
-22 -2 -37 -33 l-21 -40 22 -15 c34 -22 98 -29 146 -17 62 17 96 66 177 257
40 93 86 202 103 242 l31 72 -58 0 -57 0 -59 -141 c-32 -77 -61 -136 -65 -132
-4 4 -31 68 -61 141 l-53 132 -62 0 -62 0 89 -207z"/>
<path d="M3370 380 l0 -210 60 0 60 0 0 210 0 210 -60 0 -60 0 0 -210z"/>
<path d="M3812 518 c17 -40 56 -134 88 -208 l57 -135 63 0 63 0 57 135 c32 74
71 168 88 208 l31 72 -58 0 -57 0 -59 -140 c-32 -77 -61 -138 -65 -135 -3 2
-30 65 -60 139 l-53 136 -63 0 -63 0 31 -72z"/>
</g>
</svg>
